<svg width="64" height="64" viewBox="0 0 64 64" fill="none" xmlns="http://www.w3.org/2000/svg">
  <path d="M52 36C52 32.6863 49.3137 30 46 30C45.3431 30 44.7137 30.1137 44.1176 30.3137C43.2941 24.6667 38.3922 20 32 20C25 20 19 26 19 33C19 33.3431 19.0196 33.6863 19.0588 34.0196C15.1569 35.0588 12 38.6275 12 43C12 48.5228 16.4772 53 22 53H48C52.4183 53 56 49.4183 56 45C56 40.5817 52.4183 37 48 37C47.7451 37 47.4902 37.0196 47.2353 37.0588C46.2941 36.1176 45 35.5 44 35.5" stroke="#0EA5E9" stroke-width="3" stroke-linecap="round" stroke-linejoin="round"/>
</svg>
